<svg width="8" height="9" viewBox="0 0 8 9" fill="none" xmlns="http://www.w3.org/2000/svg">
<g clip-path="url(#clip0_72_4734)">
<path d="M7.05886 3.77516H4.95238V1.66868C4.95238 1.15116 4.51771 0.727539 4 0.727539C3.48229 0.727539 3.04762 1.15116 3.04762 1.66868V3.77516H0.941143C0.423619 3.77516 0 4.20982 0 4.72754C0 5.24525 0.423619 5.67992 0.941143 5.67992H3.04762V7.7864C3.04762 8.30392 3.48229 8.72754 4 8.72754C4.51771 8.72754 4.95238 8.30392 4.95238 7.7864V5.67992H7.05886C7.57638 5.67992 8 5.24525 8 4.72754C8 4.20982 7.57638 3.77516 7.05886 3.77516Z" fill="white"/>
</g>
<defs>
<clipPath id="clip0_72_4734">
<rect width="8" height="8" fill="white" transform="translate(0 0.727539)"/>
</clipPath>
</defs>
</svg>
